<?xml version="1.0" standalone="no"?>
<!DOCTYPE svg PUBLIC "-//W3C//DTD SVG 1.1//EN" "http://www.w3.org/Graphics/SVG/1.1/DTD/svg11.dtd">
<svg xmlns="http://www.w3.org/2000/svg" viewBox="0 0 314.0 466.0">
<rect fill="#FFFFFF" width="314.0" height="466.0"/>
<path stroke="none" fill="#c8d4ef" d="M110 0C108.945 4.73492 106.634 8.93814 113 10L112 7L116 6L111 4L112 0z"/>
<path stroke="none" fill="#ebf1f5" d="M112 7L113 10L108 7L100 7C94.1122 11.2881 83.1616 4.04269 85 16C88.5998 16.0103 97.9439 15.9052 97.0787 21.8673C96.3409 26.9515 86.1114 23.8458 83.7423 29.189C79.9285 37.7905 83 53.623 83 63L88 57L87 57L84 60C84 53.6044 80.6972 32.976 86.4336 29.0278C89.7092 26.7733 96.1947 28 100 28L100 21L102 21C102 28.0274 100.719 43.5634 107 48C101.844 65.4424 119.244 58.5602 110 47L114 47L118 14L121 15L122 11L115 11L117 9L117 8L116 6z"/>
<path stroke="none" fill="#c4c6c7" d="M118 14C118.07 16.6572 122.212 27.5003 123 21L124 21L124 33L125 33L125 20L120 14z"/>
<path stroke="none" fill="#717173" d="M117 18L116 53L118 53L120 38L123 39L121 34L121 33L123 27L120 28z"/>
<path stroke="none" fill="#b0b7c6" d="M100 21L101 29L102 29L102 21z"/>
<path stroke="none" fill="#979196" d="M123 21L122 24L121 22L120 22L120 28L123 27L121 33L121 34L123 39L120 38L120 61C122.08 59.6946 122.941 58.8193 121 57L121 56L123.008 43.0895z"/>
<path stroke="none" fill="#7a838c" d="M116 25L111.977 60.8519L117 64L119 48L118 48L118 53L116 53z"/>
<path stroke="none" fill="#94888a" d="M100 27L100 33L85 41L85 56C88.8703 53.5971 96.2778 37.2259 100 49C106.391 44.6314 103.952 32.6869 100 27z"/>
<path stroke="none" fill="#b4c7e3" d="M115 27L115 33L116 33z"/>
<path stroke="none" fill="#c0bdb8" d="M84 39L86 39L85 31L100 31L100 28C89.3554 28 84.0081 26.8414 84 39z"/>
<path stroke="none" fill="#afa69c" d="M85 31L84 60C91.0982 56.0809 90.2758 45.4967 100 47C94.0039 38.5212 88.6861 52.5431 85 56L85 41L100 33L100 31z"/>
<path stroke="none" fill="#ebc9ce" d="M192 36L194 42L195 42L205 43L205 47L209 46L204 42L206 40C200.921 35.8247 198.092 36.4113 192 36z"/>
<path stroke="none" fill="#f3efe6" d="M184 39L173 61L174 61C177.367 54.5543 180.268 49.3709 187 46C187.125 51.3413 186.756 55.5061 193 56L196 52L195 48L201 58L197 59L191 57L189 65L192 64L191 66L192 66L197 64L196 60L196 69C198.355 68.7586 205.935 68.934 201 72L201 73C205.479 75.3488 206.351 79.21 207 84L208 84C211.188 76.9651 210.665 74.6224 210 67L208 68C207.326 59.7458 200.965 45.5437 192 44L192 38z"/>
<path stroke="none" fill="#7a787a" d="M124 39C121.279 43.0728 123.75 44.6693 128 45L128 44z"/>
<path stroke="none" fill="#fdffff" d="M218 46L207 46L210 51C208.585 53.3347 211.073 56.3206 211.671 59C213.121 65.4942 214.245 80.284 220 84L218 68L219 68L221 76L225 75C224.356 72.1372 223.135 69.1181 224.488 66.2901C227.072 60.8858 231.839 61.3036 233 67L241 69L242 71L244 79L241 78L247 87L245 90L248 91C246.925 96.1667 249.711 99.1085 250.781 104.004C252.822 113.346 255.18 125.542 253 135C257.832 140.779 257 150.807 257 158L258 158C262.392 141.398 257.224 122.744 254.87 106C253.985 99.7126 253.671 90.5566 249 86C251.772 81.1337 247.475 72.2377 246 67L244 69L237 51L240 53L231 41L225 42L225 43L231 45L225 47L222 39C218.313 40.2226 218.12 42.3084 218 46z"/>
<path stroke="none" fill="#d2b5bb" d="M195 42C192.604 41.4254 192.513 41.5249 192 44C200.446 46.3753 206.915 59.9482 208 68L210 67L213 75L210 51L205 43z"/>
<path stroke="none" fill="#a4b0c6" d="M128 44L124 45L121 56L121 57C122.525 58.9544 121.364 60.593 120 58L119 58L117 64L113 64L113 65L118 63L123 64L125 46z"/>
<path stroke="none" fill="#d9dbeb" d="M89 55C92.9399 51.6763 94.3649 48.373 100 49C95.2357 42.2551 90.7162 50.2889 89 55z"/>
<path stroke="none" fill="#dcdbea" d="M104 46C96.6333 52.637 100.962 70.9541 105 79L106 79L107 68L105 71L104 71L108 61L107 48z"/>
<path stroke="none" fill="#c7c3c1" d="M184 46C180.605 50.3009 177.113 51.9995 178 58L188 56L187 46z"/>
<path stroke="none" fill="#cbdbec" d="M110 47L113 49L113 53L114 53L114 47z"/>
<path stroke="none" fill="#d1c9c9" d="M195 48L196 52C192.946 52.6544 193.064 54.0066 193 57L197 59L201 58z"/>
<path stroke="none" fill="#abcdef" d="M60 50C63.4204 62.1231 42.8279 58 35 58L35 51L33 51L33 58L23 58L23 59L34 69L35 69L35 64C42.6739 64 54.7903 66.3118 61.8912 63.2577C69.0445 60.1811 64.7578 52.6111 60 50z"/>
<path stroke="none" fill="#a9d3f0" d="M222 53L222 54L226 54z"/>
<path stroke="none" fill="#bdafa7" d="M178 58L178 56L176 56C169.092 68.1579 164.75 82.1652 163 96L164 96C166.615 85.8957 171.709 62.079 183 59L183 62L186 61L183 73L192 64L189 65L193 57C187.56 54.558 183.228 55.6854 178 58z"/>
<path stroke="none" fill="#7e7971" d="M169 80L176 77L178 80L177 84L178 84L186 61L183 62L183 59C174.762 60.2614 171.401 72.9607 169 80z"/>
<path stroke="none" fill="#a99ea4" d="M196 60L197 64C189.219 67.0495 189.3 76.9998 188 84C193.95 82.9773 196.154 76.4228 197 71C193.139 68.2566 197.993 63.7892 199 60z"/>
<path stroke="none" fill="#8b9fbd" d="M106 61L106 68L108 68L108 61z"/>
<path stroke="none" fill="#c8ccd6" d="M108 61L108 62C111.223 64.7882 112.32 66.7167 112 71L109 71L108 68L107 68C107 72.9429 102.471 87.8153 108 89L106 87C108.577 76.5415 108.611 71.1039 121 71z"/>
<path stroke="none" fill="#dff0f9" d="M226 77L221 88L223 95C219.004 98.5101 222.792 107.159 223 112L224 112L225 109L226 112L227 112L230 108L228 85L232 84C233.722 88.2844 236.774 87.985 241 88L242 105L247 105L244 107L244 119L251 122L254 117L248 91L245 90L247 87L241 78L244 79L242 71L240 71L241 69L233 67L234 64C223.643 56.8148 223.356 70.134 226 77z"/>
<path stroke="none" fill="#c0c0cb" d="M105 62L104 71L105 71z"/>
<path stroke="none" fill="#eaf1f8" d="M108 63L109 71L112 71C112.769 66.822 112.247 64.3426 108 63z"/>
<path stroke="none" fill="#888f97" d="M211 63C211.244 68.5875 211.49 81.5667 216 85L216 96L217 96L217 86L224 88L223 77L220 84z"/>
<path stroke="none" fill="#8f8484" d="M183 71L182 71C180.977 75.7856 179.382 81.4664 175 84L174 108L175 108L179 103C175.565 94.1149 176.332 79.8352 187 76L188 81L185 87L187 86L187 87C182.601 89.9704 180.184 91.4399 180 97L181 97C182.806 93.7988 184.42 93.5973 188 94L191 84C185.462 79.6448 191.643 71.1532 193 66z"/>
<path stroke="none" fill="#e7d1bc" d="M195 66L194 71L197 74L198 74L200 68z"/>
<path stroke="none" fill="#e7dbdb" d="M170 67L167 77L168 77z"/>
<path stroke="none" fill="#c4d3e9" d="M218 68L220 78L226 75L221 76z"/>
<path stroke="none" fill="#abcdef" d="M53 71L53 72C65.0911 80.0588 56.7294 90.4115 45 92L45 71C27.246 71.9603 29.3927 95.5102 46 96.9059C64.7757 98.4837 74.5273 74.3599 53 71z"/>
<path stroke="none" fill="#dcd4db" d="M212 75L208 94L209 94L211 84L214 85z"/>
<path stroke="none" fill="#6e6e6e" d="M177 101L181 100C180.025 92.0652 183.437 92.0177 187 86L185 87L185 86L188 81L187 76C176.596 78.2206 176.347 92.7307 177 101z"/>
<path stroke="none" fill="#686868" d="M153 154L154 154L163.214 110.015L169 93L171 93L163 140L164 140L167 127L168 127L169 129L176 118L168 126L167 126C168.115 112.372 177.734 98.0201 175 84L178 80L176 77C166.695 78.3627 166.336 86.4036 164.15 94C160.018 108.358 156.719 122.152 154.875 137C154.137 142.942 151.338 147.957 153 154z"/>
<path stroke="none" fill="#abcdef" d="M43 78L43 92C32.7817 90.1335 31.8133 78.8439 43 78z"/>
<path stroke="none" fill="#ebf0f5" d="M85 118L97 118L97 122L103 120L103 121L100 122L102 126L104 126C106.377 117.96 103.726 114.514 100 108L95 108L95 96L85 97C84.3379 91.6439 82.9096 82.3 88 79C82.7204 77.2699 83.0078 83.2298 83 87C82.979 97.1888 83.7187 107.861 85 118z"/>
<path stroke="none" fill="#e1e1dd" d="M85 79L85 97C95.5331 94.3267 95 93.6244 95 82z"/>
<path stroke="none" fill="#aea7b4" d="M107 79L106 87L114 82L108 83z"/>
<path stroke="none" fill="#7f8c7c" d="M108 81L112 83L112 82z"/>
<path stroke="none" fill="#d7c4a6" d="M114 83L114 84L129 84z"/>
<path stroke="none" fill="#afbdde" d="M192 82L188 94L181 94L181 95L188 99L189 99L194 82z"/>
<path stroke="none" fill="#fdf7f3" d="M113 84L115 91L111 91L111 114L120 116L123 110L131 110L134 113C133.254 115.946 132.803 117.311 136 118L124 121L124 120L128 120L128 119L113 120C113.728 123.351 114.597 124.413 118 125L118 126L115 128L121 128L119 126L119 125C126.129 125 140.088 121.658 145 127L146 127C145.287 120.101 141.699 117.59 135 117L134 105C128.163 107.237 121.434 108.379 118 102L135 101L131 83z"/>
<path stroke="none" fill="#e0dcdc" d="M109 84L110 97L111 97L111 91L115 91C114.042 87.0606 113.196 84.7263 109 84z"/>
<path stroke="none" fill="#c1b0bc" d="M211 84L211 90L212 90L213 87L214 87L214 90L215 90L216 85z"/>
<path stroke="none" fill="#d3e4ee" d="M228 85L230 108L226 114L229 113L226 116L231 120L234 117L232 121L237 135C231.799 136.115 235.345 144.693 234.917 149C233.792 160.303 234 171.605 234 183C234 188.444 232.831 192.983 238 196C228.749 202.671 239.504 217.891 236 226L237 231L239 231L240 184C249.741 180.767 241.096 157.232 248 150L245 149C245 144.77 246.586 140.84 246.667 136.917C246.902 125.49 242.016 115.211 247 105L242 105L241 88C236.792 87.9502 234.29 87.734 232 84z"/>
<path stroke="none" fill="#8b8584" d="M108 86L105 89L100 111L111 117C112.126 112.678 112.324 99.1407 107 98z"/>
<path stroke="none" fill="#a8a69c" d="M109 86L107 98C111.418 97.0533 110.876 89.2567 109 86z"/>
<path stroke="none" fill="#6a6e79" d="M217 86C213.699 99.0666 219.992 116.592 220.91 130C221.792 142.88 221.77 156.207 223.285 169C224.004 175.068 226.852 180.694 227.124 186.715C227.792 201.506 226.01 216.274 226 231L227 231L229 223L230 223L231 243L232 243L235.701 223.09L233 213L230 213L228 199C232.614 195.219 229.477 188.206 230.874 183.09C235.378 166.594 235.009 139.194 226 124L230 122L226 116L229 113L226 112L225 112L223 115L223 95z"/>
<path stroke="none" fill="#d2d3db" d="M213 87L215 113L216 113C218.145 103.617 218.361 95.5194 213 87z"/>
<path stroke="none" fill="#a9afda" d="M163 89L154 133L155 133L160.3 107z"/>
<path stroke="none" fill="#717179" d="M212 89L210.907 144L201 208L203 208L206 204C209.261 194.869 210.092 184.513 212.41 175C213.345 171.168 216.559 167.13 213 164L213 163L213 162L215 162L215 161L215 160L213 160L213 159L213 158C217.086 154.43 216.084 144.027 215.424 139C213.388 123.481 220.749 102.924 212 89z"/>
<path stroke="none" fill="#a6a9ce" d="M104 90L102 91L103 103L104 103z"/>
<path stroke="none" fill="#6e78af" d="M210 90L210 148L211 148L211.039 107z"/>
<path stroke="none" fill="#969fe5" d="M209 92L210 127L211 127z"/>
<path stroke="none" fill="#565759" d="M169 93L159.468 124L149.282 177L148 202C156.618 206.102 157.009 222.163 146 223C145.392 231.284 144.245 235.965 154 236L159 224L159 223L157 220C161.789 218.974 160.917 200.946 161 196L162 196L162 207L163 207C163.474 202.513 161.904 196.666 166 194L163 191L162 194L161 194L162 183L158 193L164.637 144L173 125L168 127L167 127L164 140L163 140L171 93z"/>
<path stroke="none" fill="#98a6b5" d="M181 98C181.436 103.738 185.275 107.115 190 110L185 98z"/>
<path stroke="none" fill="#abcdef" d="M64 100C61.0667 105.816 55.8025 105 50 105L16 105L20 116L21 116L21 111C30.8794 111 59.0696 106.224 64 116L65 116z"/>
<path stroke="none" fill="#c0aa8b" d="M110 100L111 112L112 112L112 100z"/>
<path stroke="none" fill="#dfbdc0" d="M173 100L172 112L173 112L173 109L178 109L178 114L179 114L181 113L181 111L183 112L181 106L184 105L184 104L180 100L175 108L174 108z"/>
<path stroke="none" fill="#7391ca" d="M181 106L181 107L189 111C187.159 107.343 185.033 106.283 181 106z"/>
<path stroke="none" fill="#a4bfd8" d="M233 109L238 107z"/>
<path stroke="none" fill="#aeaead" d="M171 107L167 126L168 126C170.594 120.44 173.507 112.977 171 107z"/>
<path stroke="none" fill="#e3eaef" d="M217 107L216 121L219 121z"/>
<path stroke="none" fill="#e2eaf2" d="M182 108L183 112L186 125L187 125L187 120L188 120C188 126.482 186.737 133.355 192 138L193 132L196 134L196 124L193 127C191.302 120.107 190.229 109.789 182 108z"/>
<path stroke="none" fill="#e9e3df" d="M173 109L169 122L173 117C177.233 119.046 178.515 121.334 178 126C184.982 130.385 184 144.678 184 152L185 152L178 109z"/>
<path stroke="none" fill="#94a6b5" d="M224 109L223 115C225.43 113.13 225.634 111.55 224 109z"/>
<path stroke="none" fill="#f0e3c0" d="M123 110L121 120L128 119L128 120L124 120L124 121C128.346 121 133.264 121.873 136 118L134 113L131 110z"/>
<path stroke="none" fill="#8da9dd" d="M187 111L193 127L194 127L191 110z"/>
<path stroke="none" fill="#919ab1" d="M103 111L106 115L107 112z"/>
<path stroke="none" fill="#c0a6ac" d="M179 112L186 144L187 144L189 141L190 158L191 158C190.424 144.59 190.237 121.137 179 112z"/>
<path stroke="none" fill="#877864" d="M107 126L100 131L106 128L106 134C114.948 138.934 106.219 154.074 113 160L114 155C108.481 144.66 115.978 133.97 113.5 123.996C110.535 112.065 102.799 114.473 107 126z"/>
<path stroke="none" fill="#c3bda7" d="M112 122L120 119C116.844 111.468 110.375 114.428 112 122z"/>
<path stroke="none" fill="#bcc3cd" d="M215 116L215 133L216 133L216 124L219 127L217 126L220 138L221 138L220 117L219 117L219 121L216 121z"/>
<path stroke="none" fill="#adad98" d="M173 119L176 118z"/>
<path stroke="none" fill="#9c8185" d="M232 117L227 122L229 130L230 130L233 124L232 121L234 117z"/>
<path stroke="none" fill="#f0f5f9" d="M251 117L251 122L246 118L245 118C246.435 125.591 241.938 146.01 248 150L245 151C245 158.907 247.509 179.859 240 184L238 243L239 243L245.91 202L247.028 184.357L256 183L258 165L255.715 152L253 117z"/>
<path stroke="none" fill="#8f8f8b" d="M176 118L173 127C180.231 130.317 176.918 135.784 176 142L175 142L172 140L172 144L173 144L173 141L174 141L174 144L176 143L177 146C179.281 141.565 184.535 127.913 178 126z"/>
<path stroke="none" fill="#d9def7" d="M209 118L209 134L210 134z"/>
<path stroke="none" fill="#abcdef" d="M52 119C54.769 121.903 59.5432 124.445 59.5432 129C59.5432 138.234 44.0563 141.374 38.0594 136.566C28.7717 129.12 44.7567 126.925 40.9136 121.618C38.8788 118.808 34.9815 122.23 33.7423 124.059C23.0922 139.778 50.7123 150.898 61.7755 140.606C71.4834 131.574 62.2134 120.765 52 119z"/>
<path stroke="none" fill="#b9b4a7" d="M88 148L95 139L85 143L85 130C91.6792 130 99.2268 130.39 100 122L103 121C99.0517 120.142 98.6958 124.169 95.7261 125.973C92.6955 127.814 88.3751 125.833 85.6034 128.028C81.3375 131.406 83.0604 146.361 88 148z"/>
<path stroke="none" fill="#ccd8d5" d="M187 120L187 125L186 125L185 121L184 121L188 127z"/>
<path stroke="none" fill="#dfdcc9" d="M97 122C93.5164 124.68 88.8021 123.574 85.3179 126.013C80.6972 129.248 83 141.976 83 147L84 147L85.6034 128.603L99 122z"/>
<path stroke="none" fill="#bfbba6" d="M105 122L104 126L100 128L107 126z"/>
<path stroke="none" fill="#ede2bc" d="M119 125L119 126L121 128L115 128L118 126L118 125L114 125L113 132L119 133L126 133C127.322 130.404 128.765 128.217 131 131L135 129L136 134L137 134L137 125L144 125z"/>
<path stroke="none" fill="#8c8781" d="M100 124C95.6005 129.587 91.7865 129.999 85 130L85 143C92.8591 141.817 102.034 132.64 100 124z"/>
<path stroke="none" fill="#eff4f2" d="M216 124L216 148L218 148L217 126L219 127L219 126z"/>
<path stroke="none" fill="#b0b1b8" d="M226 124L229 127z"/>
<path stroke="none" fill="#a9a6a9" d="M231 124L233 173L234 173C234 163.97 234.992 154.969 234.992 146C234.993 141.884 233.196 137.539 237 135L235 125z"/>
<path stroke="none" fill="#acabac" d="M137 125L137 129L144 129z"/>
<path stroke="none" fill="#d5dde3" d="M139 125L139 126L144 129C138.213 129.19 136.772 131.435 136 137C140.481 133.643 152.689 125.455 139 125z"/>
<path stroke="none" fill="#797578" d="M172 126L164.881 142L161 181L162 181L167 150L172 150L172 140L175 142L176 142C177.639 134.913 180.214 129.356 172 126z"/>
<path stroke="none" fill="#f0eeec" d="M82 127L82.0895 175L85 191L89 191L84 198C92.5965 195.844 95.4667 183.731 85 182L83.0895 143z"/>
<path stroke="none" fill="#adadad" d="M105 128L96 136L97 136L103 132L105 144L106 144z"/>
<path stroke="none" fill="#f3cf9a" d="M126 133L119 133C116.027 129.648 113.586 132.486 113 136L119 134L124 135C125.705 139.852 131.431 139.803 136 140L135 129L131 131C129.922 125.993 126.585 129.753 126 133z"/>
<path stroke="none" fill="#bdb7a7" d="M218 128L216 148L216 149C217.98 152.979 213.485 159.818 219 161z"/>
<path stroke="none" fill="#cfb481" d="M112 130L112 151L113 151L113 143C119.165 143.779 132.132 147.135 135 140C130.558 139.426 126.384 139.085 124 135L119 134L113 136z"/>
<path stroke="none" fill="#e3e2de" d="M103 132C86.7081 135.478 107.414 153.853 104.481 138.004C104.109 135.989 103.457 133.999 103 132z"/>
<path stroke="none" fill="#fcf9f0" d="M193 132L192 138L189 136C192.274 153.637 193.715 174.108 192.961 192C192.628 199.876 188.056 205.337 189 213C195.424 213.206 199.083 206.718 200.647 201C203.858 189.258 202 177.097 202 165L201 165L199 199L195 197L196 185L197 185L197 190L198 190L197 181C199.923 178.222 197.916 170.977 198.015 167C198.279 156.363 203.698 139.321 193 132z"/>
<path stroke="none" fill="#736d68" d="M87 133L87 139C91.6831 138.844 93.4495 137.783 94 133z"/>
<path stroke="none" fill="#757eb3" d="M154 133L154 141L155 141z"/>
<path stroke="none" fill="#73685c" d="M106 134C107.193 143.443 108.234 152.723 101 160L105 160C102.949 161.566 98.7199 161.824 97.6427 164.318C96.663 166.586 97.7504 169.649 97.9105 172C98.3624 178.636 97.4878 195.025 103 199L103 194L108 195C107.099 188.871 103.409 181.791 111 179C110.899 167.742 111.248 156.319 110.17 145C109.735 140.439 111.119 135.699 106 134z"/>
<path stroke="none" fill="#9ea5d5" d="M209 134L207 169L208 169C208.088 158.373 213.227 144.074 209 134z"/>
<path stroke="none" fill="#94a1d4" d="M153 135L150 161L151 161z"/>
<path stroke="none" fill="#adbcc4" d="M179 135L179 140L180 140z"/>
<path stroke="none" fill="#f8fafc" d="M253 135L258 165L256 183C246.318 182.243 246 184.695 246 194L254 193L254 199L259 196L260 216C256.263 216.623 258 229.409 258 233L254 233L254 235C262.024 237.436 257.98 260.381 258 268L259 268L262 204L261 204L261 207L260 207L260 190L261 190L261 199L262 199L260 153L259 153L258 158L257 158C257 151.421 258.698 139.454 253 135z"/>
<path stroke="none" fill="#ded7c3" d="M96 136L88 148L84 147L84 161L85 161L95 146L102 147L102 146z"/>
<path stroke="none" fill="#b2b5a9" d="M215 136L215 140L216 140z"/>
<path stroke="none" fill="#ab9b86" d="M106 137C105.734 146.09 101.081 146.138 95.9198 151.595C88.6622 159.268 85 165.514 85 176L91 176L96 171C96 175.545 94.9253 181.121 99 184L98.1173 164.318L105 160L101 160C107.259 155.343 108.971 144.081 106 137z"/>
<path stroke="none" fill="#a6a7dd" d="M185 137L186 171L187 171z"/>
<path stroke="none" fill="#fcfbfa" d="M220 138L219 151L220 151z"/>
<path stroke="none" fill="#8f969c" d="M227 140L226 145L227 145L229 140z"/>
<path stroke="none" fill="#a9afb5" d="M173 141L171 158L172 158L175 153L175 152L176 148L173 176L172 176L172 173L171 173L165 199L168 205L177 206C176.346 202.946 174.993 203.064 172 203L179 143L178 143L177 146L176 143L174 144z"/>
<path stroke="none" fill="#9a9a9a" d="M187 141L186 204L192 203L189 141z"/>
<path stroke="none" fill="#c9c8d4" d="M221 141L219 152C223.278 154.776 221.351 159.55 221 164L222 164C223.646 157.087 223.8 147.612 221 141z"/>
<path stroke="none" fill="#ece8e3" d="M134 142L132 145L134 148L113 148L113 151L143 151L143 144z"/>
<path stroke="none" fill="#fef8ed" d="M113 143L113 145L131 145z"/>
<path stroke="none" fill="#eac29c" d="M113 145L113 148L134 148C130.768 142.436 118.879 145 113 145z"/>
<path stroke="none" fill="#c8c0a6" d="M102 145L95 146C88.0246 159.31 82.0279 164.991 85 181L92 181L93 191L98 196L99 196C98.5661 187.547 94.2388 177.11 85 177C85 166.649 88.7965 158.81 96.5586 151.595C99.6298 148.74 102.375 149.421 104 145z"/>
<path stroke="none" fill="#f0efe7" d="M174 148L173 152L176 148z"/>
<path stroke="none" fill="#c0b9af" d="M225 148L224 151z"/>
<path stroke="none" fill="#a99b86" d="M215 149L213 158L213 159L213 160L215 160L215 161L215 162L213 164L217 163L216 167L217 167z"/>
<path stroke="none" fill="#fcfbf6" d="M216 149L216 155L217 155z"/>
<path stroke="none" fill="#abcdef" d="M43 150.653C21.6073 157.359 35.6253 185.117 55 178.942C76.1369 172.205 62.1223 144.658 43 150.653z"/>
<path stroke="none" fill="#a2a7d2" d="M136 151L135 161C140.98 160.523 141.753 156.393 142 151z"/>
<path stroke="none" fill="#a19a9a" d="M167 150L165 170L164 170L164 168L163 168L163 182L162 182L161 174L160 174L158 193L162 183L161 194L162 194L163 191L166 192L166.5 180.028L171 173L172 173L172 176L173 176L176 150L175 150L170 160L171 150z"/>
<path stroke="none" fill="#f6dd98" d="M112 151C113.551 156.108 118.731 157.532 122 153L115 155L114 154L114 153L114 152L123 152z"/>
<path stroke="none" fill="#e0be8b" d="M114 152L115 155L122 153L117 156L117 157L130 161L130 162L109 164C109.241 173.925 121.548 171.394 130 173C132.085 162.978 116.582 165.451 110 167C116.208 162.297 131.4 169.589 133 160L137 152z"/>
<path stroke="none" fill="#cb956e" d="M128 153C130.479 156.399 133.592 156.009 135 152z"/>
<path stroke="none" fill="#a79b9a" d="M137 152L136 158L137 158z"/>
<path stroke="none" fill="#fafafa" d="M218 160L222 160L222 152C217.954 153.343 218.047 156.065 218 160z"/>
<path stroke="none" fill="#ccd6f8" d="M185 154L185 173L186 173z"/>
<path stroke="none" fill="#a0b7d1" d="M236 154L241 160L240 155z"/>
<path stroke="none" fill="#bc9e71" d="M112 156L113 160L110 164L130 162C125.426 156.787 118.604 156.284 112 156z"/>
<path stroke="none" fill="#abcdef" d="M47 157.286C51.285 156.753 57.1673 156.192 60.8519 158.894C69.209 165.022 57.9347 171.934 52 172.79C35.3995 175.184 27.6115 159.7 47 157.286z"/>
<path stroke="none" fill="#68739d" d="M151 157L149 176L150 176z"/>
<path stroke="none" fill="#e7e3db" d="M170 158L170 160L172 160L172 158z"/>
<path stroke="none" fill="#bfbda6" d="M191 160L191 200L192 200C193.968 189.397 195.2 170.005 191 160z"/>
<path stroke="none" fill="#dad7d9" d="M219 160L214 174L214 175C220.391 179.143 216.282 193.442 216 200L218 200L222 174L224 175L223 165L222 165L219 174L218 174z"/>
<path stroke="none" fill="#acaba4" d="M220 160L218 174L219 174L223 162L222 162L222 164L221 164z"/>
<path stroke="none" fill="#d7d3c7" d="M165 161L164 170L165 170z"/>
<path stroke="none" fill="#cec1b2" d="M215 163L212 181L213 181L217 163z"/>
<path stroke="none" fill="#f9e9dd" d="M132 164L110 167C116.705 165.811 131.088 163.249 130 173L125 171L124 171L112 173C115.551 178.477 128.042 176 134 176z"/>
<path stroke="none" fill="#9a919c" d="M207 169L201 201L202 201C204.698 193.612 209.872 176.358 207 169z"/>
<path stroke="none" fill="#e8cebc" d="M111 174L124 173L124 170C119.172 170.004 114.129 169.807 111 174z"/>
<path stroke="none" fill="#9ca8d7" d="M148 170L147 198L148 198z"/>
<path stroke="none" fill="#c99f7c" d="M91 176L85 176L85 177C95.6553 177.349 105.42 199.749 91 202L88 213L88 214L88 215L90 234L106 235L106 232L100 232L103 230L103 229C85.1712 225.688 93.1571 217.664 106 213L104 223L107 229L119 223L109.603 215.397L104 194L103 194L103 199C99.0442 194.81 100 189.454 100 184C95.1861 181.188 96.0006 176.02 96 171C92.597 171.587 91.728 172.649 91 176z"/>
<path stroke="none" fill="#cfcbbf" d="M163 171L162 182L163 182z"/>
<path stroke="none" fill="#c2babe" d="M185 173L183 208L187 209L188 209L192 204L192 203L186 204z"/>
<path stroke="none" fill="#be9f7c" d="M111 174L111 179L106 180L106 181L125 181C124.327 178.566 122.997 176.565 121 179L120 179L119 179z"/>
<path stroke="none" fill="#f2f6fa" d="M222 174C221.335 189.477 216.136 204.209 212.116 219C211.101 222.734 209.117 233.992 204 232L196 245L197 254L205 253C206.024 261.061 205.863 273.944 214 278L210 251L211 251L211 255L214 252L220 261C224.386 240.217 224 219.256 224 198C224 191.172 226.236 179.591 222 174z"/>
<path stroke="none" fill="#d3cabc" d="M169 175L166 192L167 192z"/>
<path stroke="none" fill="#f9f1dd" d="M213 176L210.603 200.687L216 206L217 206L218 200L217 175z"/>
<path stroke="none" fill="#87868b" d="M233 175L228 199L230 213L233 213L234 218L235 218L233.259 190z"/>
<path stroke="none" fill="#e2b784" d="M113 176L113 177L119 179L120 179L121 179L121 177C123.409 178.348 124.764 179.364 122 181L122 182C126.705 181.74 129.096 180.367 131 176z"/>
<path stroke="none" fill="#d9b8c7" d="M129 181L134 176z"/>
<path stroke="none" fill="#ddddf7" d="M184 178L184 200L185 200z"/>
<path stroke="none" fill="#9791d3" d="M224 178L225 219L226 219L226 178z"/>
<path stroke="none" fill="#dbcec3" d="M85 181L85 182C89.452 183.34 94.4129 191.034 90.3827 195.401C88.381 197.57 85.257 197.126 83.8935 200.148C82.3271 203.62 83 208.287 83 212L84 212C84.0094 208.71 83.3318 203.126 87.2284 201.693C90.2202 200.593 93.7843 202.957 96.3966 200.393C100.214 196.645 97.2893 191.716 93 191L92 181z"/>
<path stroke="none" fill="#e2b98b" d="M106 181L107 192L108 192C112.457 187.173 117.904 187.789 124 188L124 183z"/>
<path stroke="none" fill="#fdf2cc" d="M121 182L121 183L124 183L124 188C122.025 187.85 102.905 188.309 109.623 193.826C112.712 196.363 120.972 195.868 125 197L122 192C124.662 191.856 125.636 191.181 126 194C130.772 190.738 130 186.317 130 181z"/>
<path stroke="none" fill="#b8af96" d="M211 181L208 201L209 201z"/>
<path stroke="none" fill="#6e74b3" d="M226 181L224 251L225 251L227 201z"/>
<path stroke="none" fill="#abcdef" d="M61 182C59.2384 187.803 54.2235 187 49 187L16 187L20 198L21 198C22.9357 191.624 29.4374 193 35 193C24.3878 207.767 47.9933 218.849 59.9059 211.467C66.3993 207.443 68.2206 198.003 61 194L61 193L66 193z"/>
<path stroke="none" fill="#b5c4c4" d="M233 187L233 194L234 194z"/>
<path stroke="none" fill="#c9d2e4" d="M260 190L260 207L261 207z"/>
<path stroke="none" fill="#a6a298" d="M167 191L163 194L163 207L162 207L161 201L160 201L157 222L161 222C161.006 213.338 169.729 206.429 165 199C168.828 198.18 168.714 193.974 167 191z"/>
<path stroke="none" fill="#abcdef" d="M40.0154 193.434C44.2894 192.227 54.898 191.655 58.7716 194.028C65.4917 198.145 59.0772 205.525 53.9992 207.057C49.2509 208.49 42.3941 208.863 38.1088 205.991C32.7859 202.423 33.7464 195.204 40.0154 193.434z"/>
<path stroke="none" fill="#938fb6" d="M148 193C147.797 196.708 144.248 201.977 149 203z"/>
<path stroke="none" fill="#fcfdfd" d="M239 279C242.249 279 241 283.285 241 286L242 286L242 257L240 258L240 247L241 247L241 253L242 253L246 209L250 209L249 205C252.522 208.196 257.557 213.385 252 217L254 220L250 221L250 250L253 247L254 247L254 276L255 276C255.651 266.298 257.423 256.727 258.09 247C258.446 241.789 260.712 236.12 254 235L254 233L258 233L260 216L259 196L254 199L254 193C243.096 193.129 244.304 208.113 243.985 217C243.71 224.681 239.724 232.149 239.093 240C238.066 252.784 241.22 266.485 239 279z"/>
<path stroke="none" fill="#ebc686" d="M104 194L106 203L107 203L115 197L124 197L124 196z"/>
<path stroke="none" fill="#bcc5c3" d="M234 194L234 207L235 207L238 196z"/>
<path stroke="none" fill="#e8e2cf" d="M125 195L115 197L106 205L110 216L116 211L121 210L120 206C123.977 203.754 127.146 199.501 125 195z"/>
<path stroke="none" fill="#d5ccc7" d="M158.333 195.667L158.667 196.333L158.333 195.667z"/>
<path stroke="none" fill="#d8d2bc" d="M209 195L202 232L212 216L210 216L216 203C210.716 202.157 210.868 199.276 209 195z"/>
<path stroke="none" fill="#cdcdc3" d="M161 196L161 202L162 202z"/>
<path stroke="none" fill="#cdcdef" d="M224 196L224 223L225 223z"/>
<path stroke="none" fill="#c5c1ba" d="M157 199L157 204L158 204z"/>
<path stroke="none" fill="#9f8771" d="M85 214C90.7351 212.748 90.3354 206.14 91 201C82.9651 201.267 83.4475 207.479 85 214z"/>
<path stroke="none" fill="#ead2b0" d="M145 201C141.07 207.062 128.207 203.49 122 203L120 206L121 210L116 211L110 216L109 209L108 209C108.159 222.441 126.086 221 136 221C131.949 215.014 127.736 216.57 122 219L124 213L122 210L126 212L128 206L133 207L127 211L136 214L137 210L141 212L145 211L144 208L154 208C152.872 202.829 149.099 203.286 145 201z"/>
<path stroke="none" fill="#878484" d="M206 201L204 203L203 208L201 205L200 205C199.061 212.005 198.966 220.355 193 225L192 220L190 220L191 260L192 260L195 257L194 265C189.327 269.062 191.171 277.88 193 283L205 285L204 289L214 285L218 280L220 270L221 270L219 296C225.428 290.469 224.232 264.816 222 257L224 252L223 252C218.833 262.82 219.943 278.516 207 283L206 279L204 281C201.293 272.681 199.875 264.437 197.691 256.09C196.807 252.712 194.113 250.758 194.653 246.996C196.651 233.077 211.272 215.706 206 201z"/>
<path stroke="none" fill="#9b9d9a" d="M200 202L196 221L193 221L189 213L190 252L191 252L190 220L192 220L193 225C198.806 221.97 201.807 207.95 200 202z"/>
<path stroke="none" fill="#c3d5e6" d="M177 203L182 211z"/>
<path stroke="none" fill="#e5ecf0" d="M164 213L173 218L178 213L176 209L177 209L184 212L184 220C189.691 217.997 186.415 211.794 187 207L181 207L182 211C174.787 203.872 167.386 201.306 164 213z"/>
<path stroke="none" fill="#a99f88" d="M206 205L204 220L205 220C207.175 215.48 207.983 209.725 206 205z"/>
<path stroke="none" fill="#c5bbb2" d="M210 216L212 216L204 234C212.166 231.423 214.521 212.598 216 205C211.331 206.871 211.254 211.541 210 216z"/>
<path stroke="none" fill="#dbc3a7" d="M128 206L126 212L122 210L124 213L122 219L144 221L146 236L145 222C154.151 221.501 154 215.704 154 208L144 208L145 211L141 212L137 210L136 214L127 211L130 211L133 207z"/>
<path stroke="none" fill="#b6b2a7" d="M197 207L191 213L193 221L196 221z"/>
<path stroke="none" fill="#bfadb2" d="M172 208L170 213L175 213z"/>
<path stroke="none" fill="#c9d8e0" d="M176 209L178 213C174.312 218.947 175.846 222.411 176 229L178 229L178 222C182.287 224.726 180.117 229.54 180 234L181 234L182 232L184 237L185 237L187 233L188 233L188 237L189 237L188 218L187 218L184 220L184 215L179 215L180 212z"/>
<path stroke="none" fill="#a0b0c7" d="M186 209L189 251L190 251L189 209z"/>
<path stroke="none" fill="#b7baba" d="M234 209L234 215L235 215z"/>
<path stroke="none" fill="#cdc3ab" d="M162 210L161 222L165 220L162 235L167 236L170 234C168.755 230.347 170.232 224.907 166 224L167 217L171 217L164 213L165 210z"/>
<path stroke="none" fill="#c1a698" d="M84 212C85.0923 218.75 91.9137 221.61 85 228C86.9181 235.972 93.1258 235 100 235L100 234L90 234C89.6456 225.178 92.1698 217.211 84 212z"/>
<path stroke="none" fill="#78788d" d="M179 215L184 215L184 212z"/>
<path stroke="none" fill="#b37a62" d="M103 229L100 224C106.306 222.994 105.996 218.468 106 213C102.002 213.933 84.1786 220.236 92.6034 226.973C94.9405 228.842 100.107 228.634 103 229z"/>
<path stroke="none" fill="#6e6e6a" d="M171 215L169 239L173 251L169 250L165 256L165 250L148 252L150 257L142 259L145 268L146 268L146 263L171 264L169 287C176.942 284.411 172.975 276.828 174.07 270.576C176.66 255.796 183.175 227.058 171 215z"/>
<path stroke="none" fill="#e3d4c4" d="M85 217C84.8124 223.486 79.7779 234.494 84.179 240.436C86.4013 243.436 91.7304 242.982 95 242.999C102.873 243.04 121.954 247.064 127 240L100 239L104 236L104 235C96.1092 235 88.3858 236.636 85 228C89.5273 225.23 90.3734 219.16 85 217z"/>
<path stroke="none" fill="#afa49e" d="M167 217L166 224L170 234C166.064 234.844 167.373 237.683 168 241L169 241L172 239L170 217z"/>
<path stroke="none" fill="#afafa6" d="M235 217L234 220z"/>
<path stroke="none" fill="#a68f7c" d="M152 219L145 222L145 226L146 226L146 223C149.902 222.873 151.915 222.401 154 219z"/>
<path stroke="none" fill="#abcdef" d="M38 240L38 241L16 241L20 252L21 252L21 247C31.6966 247 51.9785 250.977 61.6065 246.397C73.3442 240.813 62.1773 223.271 54 220.8C41.8039 217.115 21.7926 230.626 38 240z"/>
<path stroke="none" fill="#887a7c" d="M158 237L162 237L165 220C159.081 223.104 158.132 230.802 158 237z"/>
<path stroke="none" fill="#d3bdc7" d="M117 221L117 222L144 223L144 221z"/>
<path stroke="none" fill="#e3e3dc" d="M158.667 221.333L159.333 221.667L158.667 221.333z"/>
<path stroke="none" fill="#ced1ce" d="M236 221L238 235L239 235L240 232L236 226z"/>
<path stroke="none" fill="#d9d7e9" d="M120 222L120 223L137 223z"/>
<path stroke="none" fill="#9f9d8d" d="M158 222L160 224L160 222z"/>
<path stroke="none" fill="#e3dedb" d="M160.333 222.667L160.667 223.333L160.333 222.667z"/>
<path stroke="none" fill="#b7c3c7" d="M178 222L177 241L178 241L178 236L179 236L179 244L180 244L181 241L184 242L181 222z"/>
<path stroke="none" fill="#eef1f2" d="M100 236L100 237C115.709 237 132.567 242.562 148 238C143.507 233.461 144 229.094 144 223L117 224.05z"/>
<path stroke="none" fill="#5a5a5a" d="M229 223L222 257C223.773 266.859 225.349 287.748 219 296L221 270L220 270L218 280C213.703 281.495 208.119 295.333 209.796 299.852C211.932 305.607 218.055 302.33 219 298L220 298C220.762 334.9 212.895 373.825 201.656 409C198.091 420.158 193.698 430.554 188.367 440.957C186.792 444.03 182.037 446.385 181.832 449.985C181.538 455.141 188.836 455.242 191 452L193 452L195 455L203 448L201 443L198 444L206 405L209 406L219.13 379.91L224 370L224 324L227 323C227.029 316.454 229.243 303.223 233 298L233 295L233 294L231 292C228.236 290.194 228.077 288.652 230 286L230 285C224.388 281.567 225.315 272.682 229 268L230 247L234 247L229.189 236z"/>
<path stroke="none" fill="#dcc8ba" d="M100 224L100 232L107 232L106 224z"/>
<path stroke="none" fill="#cfcecc" d="M158 224L156 230C156.21 236.487 151.24 235.996 146 236L146 237L148 246L152 247L155 245L151 241L149 245L149 239C152.903 238.368 173.643 239.014 163 246L165 256C174.2 249.739 169.377 234.499 158 237L160 224z"/>
<path stroke="none" fill="#abcdef" d="M45.0008 226.394C49.9173 225.261 57.7629 226.007 61.5656 229.652C65.0541 232.996 63.611 239.369 58.8951 240.682C54.827 241.815 44.0107 242.321 40.3943 239.972C33.7231 235.64 39.2039 227.731 45.0008 226.394z"/>
<path stroke="none" fill="#b8a196" d="M235 228L234 263L239 265C239 253.559 241.331 237.968 235 228z"/>
<path stroke="none" fill="#bab8b7" d="M201 230C197.182 234.663 190.395 248.714 197 253L196 245C199.825 244.18 202.486 233.161 201 230z"/>
<path stroke="none" fill="#95948b" d="M154 232L153 235L157 235z"/>
<path stroke="none" fill="#eeefee" d="M155 232L155 234L157 234L157 232z"/>
<path stroke="none" fill="#f9f9f9" d="M181 232L184 242L181 241L180 244L179 244L179 236L178 236C177.542 241.798 174.295 252.301 180 256L180 252L188 253L188 233L187 233L185 237L184 237z"/>
<path stroke="none" fill="#b8b7d2" d="M223 233L220 257L221 257C224.525 250.706 225.858 239.812 223 233z"/>
<path stroke="none" fill="#8e887a" d="M234 234C230.956 238.347 232.337 242.344 234 247L230 247L229 268C224.656 271.105 224.193 283.301 230 285L230 286C226.946 287.759 227.571 291.265 231 292L230 294L233 294L233 295L233 298C229.281 301.642 226.294 317.691 227 323L224 324L223.004 361L225 374L225 375L223 380L224 380L224 376L225 376L225 379L228 378L226 375C229.895 372.504 229.829 368.251 229 364C232.078 361.31 232.078 353.69 229 351L230 354L226 353L227 340L230 337L234 337L234 336L233 333C228.213 330.129 229.997 323.963 230 319L231 319L234 322L233 319L237 319L236 304L240 306L242 304L237 284L240 285C237.619 279.17 234.753 271.606 239 266L239 265L234 263z"/>
<path stroke="none" fill="#ece5d9" d="M100 239L127 240C118.779 247.409 95.4459 243.32 85 242L84 254L85 254L95.9606 251.762L128 250L128 249L125 248C132.785 244.716 145.038 246.514 153 249L148 246L148 238C137.297 240.548 125.779 239.367 115 237.87C110.551 237.251 103.277 235.25 100 239z"/>
<path stroke="none" fill="#a6a9b5" d="M149 239L149 245L152 244L151 241L155 245C152.233 245.605 152.423 246.289 153 249L148 251L148 252L162 251L157 247L157 245L166 246C165.763 236.223 156.863 236.948 149 239z"/>
<path stroke="none" fill="#a8a298" d="M169 241C169.003 245.443 168.398 249.15 173 251z"/>
<path stroke="none" fill="#868d98" d="M157 245L157 247L162 248z"/>
<path stroke="none" fill="#fdfdfc" d="M125 248C131.436 252.044 145.032 253.148 151 248C144.357 245.987 131.093 244.35 125 248z"/>
<path stroke="none" fill="#e8eae7" d="M162 247L162 251L164 251L164 247z"/>
<path stroke="none" fill="#c9c3c3" d="M253 247C246.678 259.209 248.708 277.181 248 291L250 291L255 283L252 310L249 313L252 312L251 316L253 320L254 320C258.7 300.315 258.055 278.999 258 259L257 259L255 276L254 276C253.957 267.139 257.294 255.091 253 247z"/>
<path stroke="none" fill="#e2d8b8" d="M86 264C84.632 260.389 83.4725 256.458 88.0586 254.603C92.7707 252.698 99.9834 254 105 254C115.818 254 126.276 253 137 253C126.004 246.301 107.42 249.439 96 251.75C93.0926 252.338 90.0123 250.322 87.2222 251.333C82.5943 253.011 80.6011 262.843 86 264z"/>
<path stroke="none" fill="#dcd8cc" d="M148 251L151 249z"/>
<path stroke="none" fill="#ac9975" d="M132 251L132 252L148 254C146.802 248.408 136.451 250.925 132 251z"/>
<path stroke="none" fill="#c7c8c0" d="M188 250L180 252C178.136 267.157 194.914 256.798 188 250z"/>
<path stroke="none" fill="#eaddc3" d="M210 251L214 278C224.098 271.128 217.007 260.086 214 252L211 255z"/>
<path stroke="none" fill="#abcdef" d="M61 252C59.2384 257.803 54.2235 257 49 257L16 257L20 268L21 268C22.9357 261.624 29.4374 263 35 263C24.3878 277.767 47.9933 288.849 59.9059 281.467C66.3994 277.443 68.2205 268.003 61 264L61 263L66 263z"/>
<path stroke="none" fill="#fffcf8" d="M125 253L125 255L146 255L146 253z"/>
<path stroke="none" fill="#cbc6b5" d="M146 253L141 256L141 257L150 257z"/>
<path stroke="none" fill="#b5c2cf" d="M198 254L199 268L200 268L199 255C204.142 257.808 207.262 271.204 202 275C202.592 277.808 202.957 281.099 206 279L207 283L214 278C206.236 272.283 206.655 261.785 205 253z"/>
<path stroke="none" fill="#d0b191" d="M84 262L136 257C128.02 250.954 108.738 254 99 254C95.4363 254 90.4858 253.148 87.1481 254.603C84.0684 255.946 84.0938 259.118 84 262z"/>
<path stroke="none" fill="#efe5a6" d="M135 255L135 256L143 256z"/>
<path stroke="none" fill="#b5afa9" d="M177 255C176.576 258.358 175.265 262.525 176.743 265.775C181.842 276.987 189.928 262.018 191 257C184.02 259.575 181.961 260.62 177 255z"/>
<path stroke="none" fill="#eaf3f8" d="M199 255C199.261 261.074 198.256 272.815 205 275C204.443 268.925 205.884 257.263 199 255z"/>
<path stroke="none" fill="#b4a488" d="M110 260L110 261L149 258C140.896 252.926 118.482 256.336 110 260z"/>
<path stroke="none" fill="#79726c" d="M194 257C188.492 263.349 186.768 274.34 190 282L191 282L194 265z"/>
<path stroke="none" fill="#b48068" d="M114 260L114 261L142 262C137.89 256.607 120.632 260 114 260z"/>
<path stroke="none" fill="#9d8b73" d="M190 260L186 274L180 272L174 279L170 287L170 288L169 302L170 302C171.625 296.627 173.209 291.674 179 290L176 296L177 300C181.814 297.048 181.774 291.266 182 286L185 297L186 297L187 289L188 289L189 293L190 293L190 289L197 287L197 282L193 280L190 282z"/>
<path stroke="none" fill="#edd4c0" d="M87 261L87 262L98 262z"/>
<path stroke="none" fill="#f3d2a9" d="M103 261L103 262L114 262z"/>
<path stroke="none" fill="#ede3e1" d="M135 262L135 263L142 263L142 311L143 311L143 262z"/>
<path stroke="none" fill="#bc958d" d="M143 262L143 274L145 274z"/>
<path stroke="none" fill="#abcdef" d="M40.0154 263.434C44.2894 262.227 54.898 261.655 58.7716 264.028C65.4917 268.145 59.0771 275.525 53.9992 277.057C49.2509 278.49 42.3941 278.863 38.1088 275.991C32.7859 272.423 33.7464 265.204 40.0154 263.434z"/>
<path stroke="none" fill="#5a5a5b" d="M146 263L145.049 317.424L147 335C142.141 351.44 149.696 371.501 151 388L155 388C155.108 382.794 155.351 374.002 160 371L156 359L159 358L158 339L155 336L157 336C154.117 326.764 152.249 312.887 157 304C150.962 293.143 155.467 274.504 158 263z"/>
<path stroke="none" fill="#e1e3df" d="M151 263L151 265L154 265L154 263z"/>
<path stroke="none" fill="#f8f1ea" d="M158 264L159 268L160 268L164 263z"/>
<path stroke="none" fill="#bbb4b8" d="M232 263C232 266.644 230.783 271.096 235 272L235 271z"/>
<path stroke="none" fill="#c4a896" d="M161 265L169 285L171 264z"/>
<path stroke="none" fill="#947b64" d="M157 265L158 269L159 269z"/>
<path stroke="none" fill="#c5b4c0" d="M161 266C160.406 272.659 162.773 283.659 169 287z"/>
<path stroke="none" fill="#a09d8f" d="M175 266L177 277L174 279C177.92 278.265 179.102 275.767 180 272L186 274L187 267L186 267C182.107 270.162 179.066 267.783 175 266z"/>
<path stroke="none" fill="#c0a894" d="M237 266C237 271.264 235.383 279.485 240 283L239 266z"/>
<path stroke="none" fill="#e1d8cd" d="M156.667 268.333L157.333 268.667L156.667 268.333z"/>
<path stroke="none" fill="#a9988d" d="M155 278L158 279L156 290L157 290L161 268C156.047 269.821 156.132 273.316 155 278z"/>
<path stroke="none" fill="#858478" d="M174 268L174 278L177 277z"/>
<path stroke="none" fill="#fcf9ed" d="M214 269L214 272L217 272L217 269z"/>
<path stroke="none" fill="#eaf1f5" d="M160 271L157 290L156 290L155 278L155 293L157 292L162 346L163 346L170 287z"/>
<path stroke="none" fill="#847a78" d="M143 274L144 294L145 294L145 274z"/>
<path stroke="none" fill="#d7d3a9" d="M240 278L240 285L237 284L243 298L247 299C246.346 295.946 244.993 296.064 242 296z"/>
<path stroke="none" fill="#b69f9a" d="M143 279L143 285L144 285z"/>
<path stroke="none" fill="#ded8cc" d="M159 280L158 284L159 284z"/>
<path stroke="none" fill="#b09d88" d="M197 282L197 287L190 289L189 298L191 298L191 292C193.993 291.936 195.346 292.054 196 289L200 291L198 284L204 289L205 285z"/>
<path stroke="none" fill="#b7adb4" d="M161 283L163 286z"/>
<path stroke="none" fill="#b4a896" d="M254 283L245 295L245 296C247.134 298.865 247.055 301.014 244 303L238 311C238.577 308.289 238.768 307.605 236 307C235.65 312.514 235.773 318.806 241 322L238 327L238 345L240 345L244 324C242.184 314.662 247.614 307.203 251 299L252 299L252 303L253 303z"/>
<path stroke="none" fill="#dfd4bc" d="M198 284L200 292L208 290L208 289z"/>
<path stroke="none" fill="#f5f2e3" d="M212 284L208 290z"/>
<path stroke="none" fill="#af9f9c" d="M182 286L177.573 301.92L181.454 311.17L182 325L183 325C183 316.415 189.204 291.436 182 286z"/>
<path stroke="none" fill="#847f84" d="M212 286C207.708 293.192 205.048 296.735 208 305L216 304L216 303C204.553 301.19 214.493 292.392 212 286z"/>
<path stroke="none" fill="#8b86a3" d="M143 287L147 370L148 370L147 335L145.182 319z"/>
<path stroke="none" fill="#d5d1c7" d="M251 287L251 290L253 290L253 287z"/>
<path stroke="none" fill="#d4bdb8" d="M170 288L169 294L170 294L172 288z"/>
<path stroke="none" fill="#847b73" d="M187 289L183 326L183.04 362L184 381L187 387L188 387L187 367C184.622 363.731 185.436 360.951 188 358C185.953 350.821 181.28 342.578 187 336C184.728 326.456 186.047 314.649 187.428 305C188.19 299.683 190.496 293.616 187 289z"/>
<path stroke="none" fill="#c8b4a9" d="M196 289L191 292L191 298L188 298L187 336L188 336L189 319L192 319L192 295L199 295C200.062 300.258 202.95 303.278 208 305C206.291 297.727 207.57 295.82 210 289C204.495 292.025 201.558 291.793 196 289z"/>
<path stroke="none" fill="#615f5e" d="M164 370L167 370L170 353C168.326 340.078 169.12 324.448 172.91 312C174.218 307.707 172.958 302.62 177 300L176 296L179 290C171.171 291.244 169.22 301.33 167.424 308C162.073 327.87 164 349.568 164 370z"/>
<path stroke="none" fill="#f7f0df" d="M203 290L203 292L208 291z"/>
<path stroke="none" fill="#fafcfe" d="M0 291L0 301C8.01986 300.595 15.7481 297.217 23 302C32.3747 296.789 45.8685 301.106 56 302C60.1591 298.849 66.145 299.844 71 301L82 300L82 293L69 293L64 292C41.8824 293.57 22.0727 293.792 0 291z"/>
<path stroke="none" fill="#e7e4d7" d="M256 291L256 303L257 303z"/>
<path stroke="none" fill="#f7fafd" d="M82 300C77.5933 298.531 71.6023 297.988 71 301C66.821 299.765 59.1225 298.427 56 302C47.4121 300.23 30.2194 296.119 23 302C16.5657 296.426 7.53873 300.25 0 301L1 311L12 312C15.9835 308.765 22.1077 310.004 26 313L27 313L40 313C47.1815 307.553 77.0816 307.981 82 316L83 316L83 294L94 294C87.0149 290.987 82.0953 291.959 82 300z"/>
<path stroke="none" fill="#8b8b8b" d="M156 292L155 303L156 303z"/>
<path stroke="none" fill="#e4effa" d="M83 294L81 340L49 337C41.783 341.007 30.8717 338.088 23 337.874C15.3899 337.668 7.69217 339.995 0 340L0 350L6 348L7 348L17 351L18 351C35.8026 343.445 60.9392 347.998 80 348L81 359L82 359L83.1698 320z"/>
<path stroke="none" fill="#e7e6d8" d="M84 294C84 321.317 83 348.627 83 376C83 380.851 80.1712 400.394 87.1042 400.743C96.5595 401.219 92.2981 385.444 94.6034 380.148C95.8695 377.24 99.3139 376.884 102 376L102 375L93 374L90 384L91 397C80.1566 397.56 85.5512 385.114 84.7145 378C82.4304 358.579 83.4582 336.536 85 317L101 321L104 315C97.317 316.986 92.0593 315.545 89 309L101 309L101 307C104.741 309.411 106.02 311.527 106 316L116 319L116 314L108 314L108 310C112.434 309.947 115.198 309.805 116 305L109 304L109 301z"/>
<path stroke="none" fill="#d2ccc6" d="M192 295L192 315L193 315L195 302L196 302L198 335L199 335L199 295z"/>
<path stroke="none" fill="#beb6ae" d="M86 296C86.5247 312.157 100.552 297.12 86 296z"/>
<path stroke="none" fill="#b1b7b0" d="M157 296L156 299z"/>
<path stroke="none" fill="#aca4b6" d="M219 298L219 308L220 308z"/>
<path stroke="none" fill="#fcfaf7" d="M243 298L241 300L247 303z"/>
<path stroke="none" fill="#838381" d="M251 299C245.613 308.18 242.655 316.301 244 327L242 326C242 332.749 242.62 339.551 238 345L236 357L240 367L241 367C241 362.923 239.507 357.793 240.291 353.91C243.173 339.627 250.412 326.507 249 311L252 310z"/>
<path stroke="none" fill="#b7b9b5" d="M156 300L158 303z"/>
<path stroke="none" fill="#a19ca8" d="M168 300L166 311L167 311z"/>
<path stroke="none" fill="#98887a" d="M174 300L173 313L174 313L177 300z"/>
<path stroke="none" fill="#d8cec9" d="M240 306L236 304L239 307L238 311L245 304L241 303z"/>
<path stroke="none" fill="#b4b0cb" d="M176 304L173 317L177 316L178 328L179 328L180 316L181 316L184 379L185 379L182.039 346L179 304z"/>
<path stroke="none" fill="#7c7aa0" d="M220 304L213.486 354L205 396L206 396L218.285 330z"/>
<path stroke="none" fill="#b7c2c7" d="M155 305C154.94 312.887 153.945 324.429 159 331C159.671 323.492 159.188 311.346 155 305z"/>
<path stroke="none" fill="#b8afb9" d="M208 305L208 306L214 306z"/>
<path stroke="none" fill="#f9f7f5" d="M101 307L101 309L89 309C91.5223 317.829 98.0496 313.909 104 317L105 317L105 308z"/>
<path stroke="none" fill="#f0f6fc" d="M12 312L0 310L0 322C20.5597 322.883 41.4827 323.049 62 322.405C66.7309 322.257 79.9424 324.583 81.5509 318.867C83.1603 313.148 78.3914 312.035 73.9992 311.425C66.3928 310.369 45.6224 306.558 40 313C35.631 311.794 30.9543 310.183 27 313C23.1694 310.275 15.4168 307.837 12 312z"/>
<path stroke="none" fill="#cfc1bf" d="M105 310L105 321L115 321C113.596 316.755 110.102 316.533 106 316z"/>
<path stroke="none" fill="#e5e4e2" d="M195 310L194 325L196 325L197 310z"/>
<path stroke="none" fill="#b4afc0" d="M165 311L165 316L166 316z"/>
<path stroke="none" fill="#a4a19c" d="M250 312L246.2 357L241 385L240 385C240.744 377.964 242.746 360.941 236 357L238 361L234 375L230 373L226 375L228 378L225 379L225 376L224 376L216 397L217 399L212 425C207.927 427.588 207.464 432.45 207 437L204 437L202 445L207 445L205 441C226.946 442.635 225.912 418.623 235 406L235 411L236 411C238.864 397.125 249.854 377.016 246 363C256.528 354.487 246.612 331.752 254 322L251 316L252 312z"/>
<path stroke="none" fill="#8d7f6a" d="M172 313L171 325L172 325z"/>
<path stroke="none" fill="#e5e4e1" d="M245.333 315.667L245.667 316.333L245.333 315.667z"/>
<path stroke="none" fill="#c8cbc0" d="M173 321L174 321L176 318L176 352L177 352L177 316z"/>
<path stroke="none" fill="#c0a696" d="M85 317L84 329L100 327L101 332L102 332L102 322L87 317z"/>
<path stroke="none" fill="#f0d7b4" d="M101 321L96 321L96 322L102 322L101 333L108 321L105 317z"/>
<path stroke="none" fill="#9ea7af" d="M155 318L155 338C159.756 338 157 348.418 157 352L158 352L160 348L160 330z"/>
<path stroke="none" fill="#efe9d9" d="M174 318L170 342L173 339L174 342L175 342L176 318z"/>
<path stroke="none" fill="#9a9688" d="M186 318L186 335L187 335z"/>
<path stroke="none" fill="#fffffe" d="M237 318L233 356L237 356L234 354L241 322z"/>
<path stroke="none" fill="#d8c0b0" d="M230 319C229.987 323.816 227.469 331.048 233 333L234 336L234 337L230 337L227 340L226 353L230 354L229 351C237.224 346.254 237 327.538 237 319L233 319L234 322z"/>
<path stroke="none" fill="#edf4fb" d="M81 320C74.9699 324.876 61.3592 321.878 54 321.374C36.2925 320.163 17.7923 322.367 0 322L0 329L7 330L16 329L45 328L54 329.188L81 329z"/>
<path stroke="none" fill="#a19cb4" d="M164 322L164 328L165 328z"/>
<path stroke="none" fill="#c7c3b8" d="M252 322L252 332L253 332L254 322z"/>
<path stroke="none" fill="#d2c7b4" d="M242 324L244 327L244 324z"/>
<path stroke="none" fill="#af9978" d="M170 325L170 340L171 340z"/>
<path stroke="none" fill="#8b869b" d="M182 325L182 351L183 351z"/>
<path stroke="none" fill="#eaf3fb" d="M81 326C76.1368 332.399 51.3739 331.685 45 328C35.6143 328.973 25.4198 329.791 16 328.917C13.2995 328.666 6.97674 326.511 7 330C-0.978704 327.021 0 334.022 0 340C7.58904 339.999 15.3429 337.714 22.8302 338.052C30.2729 338.388 42.4589 341.581 49 337L81 340z"/>
<path stroke="none" fill="#d6c6c6" d="M92 330L100 328C96.7431 326.674 94.0555 327.09 92 330z"/>
<path stroke="none" fill="#f4e6db" d="M238 327L238 335C240.972 332.109 241.007 329.868 238 327z"/>
<path stroke="none" fill="#e4b780" d="M84 332L92 331L92 328C88.0654 328.047 85.3429 327.954 84 332z"/>
<path stroke="none" fill="#fcecc6" d="M91 341L85 341L84 360L85 360C85.3394 349.576 95.2431 350.821 103 353C101.206 350.216 98.0226 350.263 96.0895 347.683C92.4669 342.848 92.8137 334.194 95 329C89.8351 331.754 89.5112 335.739 91 341z"/>
<path stroke="none" fill="#a4a6b7" d="M163 329L163 339L164 339z"/>
<path stroke="none" fill="#f2d6ab" d="M84 332C84.021 337.937 84.5336 340.788 91 341L91 331z"/>
<path stroke="none" fill="#616660" d="M185 336C183.491 344.13 184.917 350.434 188 358C185.053 360.244 184.037 364.398 187 367C183.715 378.112 187.958 394.446 194 404L200 389L198 383L200 380L199 380L195 382L192 356C185.705 352.323 187.987 342.327 188 336z"/>
<path stroke="none" fill="#bdbfbf" d="M156 337L156 340L157 340z"/>
<path stroke="none" fill="#817c8c" d="M163 339L163 346L162 346L161 341L160 341L163 368L162 368L160 366L160 371C166.72 368.77 165.481 344.913 163 339z"/>
<path stroke="none" fill="#86868b" d="M149 342L152 341z"/>
<path stroke="none" fill="#afa391" d="M170 342L169 347z"/>
<path stroke="none" fill="#d7c3bd" d="M237 342L234 354C240.179 352.16 239.46 347.007 237 342z"/>
<path stroke="none" fill="#8f9196" d="M188 343C187.227 347.567 186.994 354.24 192 356L191 359L195 359L195 350L194 350L194 354z"/>
<path stroke="none" fill="#696968" d="M245 343C240.413 350.24 236.939 364.259 242 372C245.776 362.958 248.228 352.583 245 343z"/>
<path stroke="none" fill="#b0c6d7" d="M159 344L160 348L158 355L163 351z"/>
<path stroke="none" fill="#d1d8dd" d="M175 345L176 368L177 368z"/>
<path stroke="none" fill="#deebf9" d="M18 351L17 351L7 348L6 348L0 350L0 359C10.7204 358.165 30.9944 351.243 38 363C45.8899 358.069 57.934 361.589 67 360.833C69.7228 360.606 75.4992 359.433 78 360.5C80.7734 361.683 80.9331 364.458 81 367L82 367L80 348C63.0232 347.989 45.6175 345.293 29 349.239C25.1012 350.165 21.5241 348.814 18 351z"/>
<path stroke="none" fill="#ccc7bd" d="M170 347L168 353L168 354C171.643 352.804 172.205 350.607 173 347z"/>
<path stroke="none" fill="#e7dbbf" d="M231 348L231 356L233 356z"/>
<path stroke="none" fill="#bfc1cb" d="M193 350C191.702 352.185 191.789 352.693 194 354z"/>
<path stroke="none" fill="#a49cc5" d="M213 350L213 355L214 355z"/>
<path stroke="none" fill="#f2d9a3" d="M85 361C93.4654 360.819 92.8178 357.006 98 352C89.9585 348.72 85.0272 353.296 85 361z"/>
<path stroke="none" fill="#889ab2" d="M160 351L159 358L160 358L161 353L162 353L162 360L163 360L163 351z"/>
<path stroke="none" fill="#e3e6dc" d="M172 351L168 354L171 368L172 368C171.767 362.648 169.864 358.189 174 354L174 353z"/>
<path stroke="none" fill="#d1c2b2" d="M95 358L103 358C102.439 350.802 95.5608 350.802 95 358z"/>
<path stroke="none" fill="#bdd1de" d="M161 353L161 361C157.284 361.796 158 364.637 158 368L162 368L163 368z"/>
<path stroke="none" fill="#d7e7f7" d="M82 354L81 371C63.9316 364.639 43.0215 369.584 25 369.137C16.5107 368.926 8.49742 366.428 0 368L0 380L18 382L16 379L72 379L72 377C80.7843 381.005 81.9744 386.728 82 396L83 396C83 384.043 86.6107 364.988 82 354z"/>
<path stroke="none" fill="#aca4c5" d="M145 354L145 358L146 358z"/>
<path stroke="none" fill="#c4bfad" d="M235 355L234 358L229 364L230 375L234 375L238 361z"/>
<path stroke="none" fill="#dae9f8" d="M1 358L0 368C8.62519 366.934 16.4774 369.311 25 369.425C43.5789 369.675 62.9322 366.062 81 371C81 367.789 82.2924 361.796 79 360C76.9304 358.871 74.6335 361.136 73 361C64.698 360.308 41.8268 358.216 38 363C33.0013 350.299 10.5765 359.107 1 358z"/>
<path stroke="none" fill="#9a8a64" d="M231 356L234 358z"/>
<path stroke="none" fill="#f5debf" d="M103 357L85 361L84.7137 385L85.0262 396.357L91 397L90 384L97 370L95 367L103 367z"/>
<path stroke="none" fill="#737577" d="M156 359L157 368L158 368L161 361z"/>
<path stroke="none" fill="#717e87" d="M191 359L195 382C201.24 381.219 200.278 373.543 195 372L193 360L194 360L194 362C194.951 359.493 193.348 359.294 191 359z"/>
<path stroke="none" fill="#cfd8db" d="M152 360L152 364L153 364L154 360z"/>
<path stroke="none" fill="#858784" d="M168 360L167 369L171 369z"/>
<path stroke="none" fill="#b2c1be" d="M193 360L195 372C200.07 370.908 195.9 362.327 193 360z"/>
<path stroke="none" fill="#9aa3a3" d="M153 363L156 363L155 361z"/>
<path stroke="none" fill="#b7bcd8" d="M211.333 362.667L211.667 363.333L211.333 362.667z"/>
<path stroke="none" fill="#ddcfb7" d="M95 367L97 370L95 374L102 375C103.405 369.012 101.89 364.051 95 367z"/>
<path stroke="none" fill="#807c7a" d="M243 367L241 370L240 370L240 385L241 385z"/>
<path stroke="none" fill="#c6cacc" d="M162 372L167 373L166 379C171.608 377.292 170.283 383.245 170 387L171 387L172 382L175 384L174 380L177 370C171.731 368.189 166.438 368.363 162 372z"/>
<path stroke="none" fill="#afa9c7" d="M147 370L148 383L149 383z"/>
<path stroke="none" fill="#837c68" d="M221 370L209 406L206 405L199 435L202 433L204 435L204 436L202 438L207 437L212 425L217 399L216 397L225 375L225 374L223 370z"/>
<path stroke="none" fill="#96887f" d="M157 371L157 375L158 375z"/>
<path stroke="none" fill="#b4a7a0" d="M158 371L156 391L157 391L158 386L161 388L161 375L163 377L164 377L167 375z"/>
<path stroke="none" fill="#f6f4ef" d="M159 371L163 374z"/>
<path stroke="none" fill="#646b68" d="M161 375L162 384L163 384C163.655 380.295 164.306 377.345 161 375z"/>
<path stroke="none" fill="#e1e9eb" d="M164 375C164 378.511 163.013 382.146 167 383L166 375z"/>
<path stroke="none" fill="#d2e4f7" d="M72 377L72 379L56 379.326L16 379L18 382C13.48 381.06 6.99832 377.669 2.3179 379.782C-0.570607 381.085 -1.11526 387.923 1.60262 389.648C4.60474 391.554 12.2859 389.513 15.8302 389.623C30.4202 390.077 45.4767 389.661 60 388L60 391C65.5062 390.452 74.1446 388.848 78.3966 393.549C81.8329 397.349 80.6989 407.111 81.2855 412C83.434 429.906 84 447.958 84 466L86 466C86 444.234 88.0601 419.219 83.2546 398C81.0984 388.479 82.6535 380.515 72 377z"/>
<path stroke="none" fill="#8584a1" d="M149 377L149 388L151 388z"/>
<path stroke="none" fill="#8b958b" d="M167 377L165 378L165 383C166.484 387.453 163.772 392.693 161 392L160 398L163 397L162 394C165.852 395.781 169.249 398.095 172 394L175 398C171.406 400.905 167.864 400.177 164 398L163 405L166 403L167 403L170 407L177 405L177 407L179 407L182 402C179.913 401.735 175.363 400.748 179 399L179 398L177 397L179 394L175 395L177 382L170 387C170.56 382.545 171.823 378.94 167 377z"/>
<path stroke="none" fill="#adb7c0" d="M196 378L196 380L198 380L198 378z"/>
<path stroke="none" fill="#c6c1c1" d="M163 381L161 392L162 392L162 385L163 385L165 390C163.995 386.984 163.179 385.295 166 386z"/>
<path stroke="none" fill="#c5bbb8" d="M185 381C185.159 384.485 187.413 405.885 180 393L185 395L186 392L176 391L174 394L179 394L179 398L179 399L176 401L181 399L179 401L179 402L182 403L177 407L177 408L187 403C190.45 398.598 193.047 407.208 194 410L198 409L197 419L196 419L196 414L195 414C194.967 423.793 184.863 435.801 178 423L170 422C170.421 425.77 171.101 428.252 175 429L172 431L172 432L179.495 439.607L192 435C197.139 424.195 207.468 405.076 204 393L203 395L204 395L199 401L200 405L195 401L194 404z"/>
<path stroke="none" fill="#ebeff3" d="M172 382L172 386L174 386L174 382z"/>
<path stroke="none" fill="#8b8f8b" d="M200 382L197 390L197 391L203 394z"/>
<path stroke="none" fill="#ebf4f4" d="M198 383L199 388L200 388z"/>
<path stroke="none" fill="#cecccb" d="M216 383L217 384z"/>
<path stroke="none" fill="#b4aead" d="M193 384L193 385L196 385z"/>
<path stroke="none" fill="#5d5d58" d="M162 385L162 393L163 393z"/>
<path stroke="none" fill="#e0e4e4" d="M164 385L166 389z"/>
<path stroke="none" fill="#6d6c68" d="M158 386C158.354 394.234 161.978 404.24 151 406L150 398L149 398L149 409L159 410C159 422.339 164.71 435.079 178 439L172 432L172 431L175 429C170.331 427.596 169.963 423.364 173 420C172.171 413.705 169.303 410.906 163 413L162 409C166.432 409.815 168.712 408.916 171 405L167 403L166 403L162 405L162 397L160 398C160.201 393.317 161.589 389.556 158 386z"/>
<path stroke="none" fill="#8e8d98" d="M157 387C155.986 391.863 153.772 392.99 149 392L147 393L148 409L149 409L149 398L150 398L150 403L151 403L150 395L158 395L158 403L159 403z"/>
<path stroke="none" fill="#c9c9c3" d="M167 387L166 392L172 391L172 390L169 387z"/>
<path stroke="none" fill="#cde1f5" d="M0 390L0 399L27 402C31.2875 399.814 37.7184 399.838 42 402L58 401L64 402L65 402L79 399L78 401C88.7149 391.635 65.1535 389.87 60 391L60 388z"/>
<path stroke="none" fill="#b4a7bd" d="M148 390L148 394z"/>
<path stroke="none" fill="#a19675" d="M177.667 391.333L178.333 391.667L177.667 391.333z"/>
<path stroke="none" fill="#a09086" d="M196 391C195.234 397.07 194.32 401.306 200 405L197 399z"/>
<path stroke="none" fill="#fdfbf3" d="M197 391L200 394z"/>
<path stroke="none" fill="#bec0b7" d="M160 392L160 396L161 396z"/>
<path stroke="none" fill="#e7ddcd" d="M200 392L197 401C201.147 400.325 203.09 399.207 204 395L203 395L202 397z"/>
<path stroke="none" fill="#cecbda" d="M146 393L146 403L147 403z"/>
<path stroke="none" fill="#bdb4a7" d="M162 394L162 405L163 405C163.922 401.448 164.969 396.622 162 394z"/>
<path stroke="none" fill="#737471" d="M171 394L164 395C165.143 400.244 171.419 402.641 175 398z"/>
<path stroke="none" fill="#ecece9" d="M150 395L151 405L158 405L158 395z"/>
<path stroke="none" fill="#c7def4" d="M0 399L0 412L5 410L22 412L22 411L20 410L36 412L37 412C44.7527 406.84 65.859 417.923 71 409L72 409L80 411L82 439L83 439L82 413L79 399L65 402L64 402L58 401C54.951 397.569 46.0702 400.785 42 402C38.8978 398.92 30.452 399.572 27 402C20.0308 396.268 8.47774 399.37 0 399z"/>
<path stroke="none" fill="#fffefd" d="M180 399L177 401C179.048 401.242 180.868 401.316 180 399z"/>
<path stroke="none" fill="#bfab96" d="M187 400L186 415L189 400z"/>
<path stroke="none" fill="#f5f5f5" d="M185 402C180.634 406.822 178.299 407.248 172 407L172 409L182 408C184.396 408.575 184.487 408.475 185 406L186 406L186 409L187 409z"/>
<path stroke="none" fill="#9b9086" d="M151 405L151 406L156 405z"/>
<path stroke="none" fill="#c6c6c6" d="M172 406L172 407L177 405z"/>
<path stroke="none" fill="#e9e6d5" d="M185 406L182 408L181 411L185 416L179 414L183 423L178 423C180.123 429.042 184.277 429.358 190 428L185 420C188.288 417.085 187.076 409.53 185 406z"/>
<path stroke="none" fill="#9f8784" d="M234 406C226.773 419.472 225.631 441.606 205 441L207 445L202 445L202 437L204 435L202 433L198 435L198 444L201 443L203 448L195 455L193 452L191 452C187.018 455.6 183.195 453.365 181 449L175 454L177 452L178 452L178 456L188 456L187 460C208.31 459.984 222.552 444.296 230.188 426C232.682 420.026 236.691 412.426 234 406z"/>
<path stroke="none" fill="#b8b7b0" d="M164 411C168.039 411.642 170.442 410.914 172 407z"/>
<path stroke="none" fill="#c3dbf4" d="M22 411L22 412L5 410L0 412C0.287416 415.633 1.26504 418.162 5 416L10 417C10.586 419.93 12.5024 419.488 13 417L41.5756 418.069L79 418L81 432L82 432L80 411L72 409L71 409C62.1339 417.535 45.255 404.362 37 412z"/>
<path stroke="none" fill="#f0eadb" d="M162 409L165 413z"/>
<path stroke="none" fill="#7f7c7a" d="M171 409L169 412C170.887 414.473 173.234 417.203 171 420C172.806 423.201 174.42 423.403 178 423L178 419L178 418L173 409z"/>
<path stroke="none" fill="#aea8a0" d="M173 409L178 418L178 419C175.324 422.061 180.641 422.822 183 423L179 414L181 416L185 416C182.927 410.439 178.591 409.135 173 409z"/>
<path stroke="none" fill="#9894b8" d="M195 409L196 419L197 419L197 409z"/>
<path stroke="none" fill="#715c5c" d="M197 409L197 413L198 413z"/>
<path stroke="none" fill="#ded6ce" d="M153 410C155.758 420.66 156.503 431.427 164 440L168 438L169 438L175 446L173 447L172 447L166 441C170.548 456.319 187.772 443.315 191 434C182.123 439.473 172.271 441.974 165 432L161 434L162 429z"/>
<path stroke="none" fill="#bca79e" d="M155 410C156.612 415.682 156.796 425.816 162 429L159 410z"/>
<path stroke="none" fill="#c0daf3" d="M4 416L0 417L0 424L49 425L49 423C58.747 427.516 76.0695 418.764 80 431L81 431L79 418C58.6451 419.104 33.0353 420.967 13 417L10 417z"/>
<path stroke="none" fill="#c7b4a9" d="M162 422L164 425L164 422z"/>
<path stroke="none" fill="#bdd7f2" d="M49 423L49 425L32 424.825L0 424L0 435L1 435L1 432L27 430L27 433L54 433C58.1924 429.39 62.1546 431.97 67 432.836C70.4463 433.451 74.5352 431.684 77.6057 433.877C83.9423 438.404 82 458.812 82 466L84 466L82.1188 436L76.6975 424.742z"/>
<path stroke="none" fill="#a0867f" d="M162 428L161 434L165 432L166 435L168 435C168.626 430.118 166.801 428.371 162 428z"/>
<path stroke="none" fill="#b9d5f2" d="M1 432L0 439L7 440L8 437L10 437C15.7875 445.025 37.1606 437.452 46 439L57 437L58 437L59 437L70 440L70 438L74 440L78 438L80 443L81 443C80.7211 431.138 75.3409 434.274 66.8302 432.527C62.4873 431.635 57.2474 428.878 54 433L27 433L27 430z"/>
<path stroke="none" fill="#c7b5a6" d="M168 433L170 438L174 436z"/>
<path stroke="none" fill="#917f6e" d="M168 435L168 437L170 435z"/>
<path stroke="none" fill="#b5d3f1" d="M8 437L7 440L0 439L0 449L3 451L4 451C7.64343 448.571 11.0795 450.82 16 450C23.7721 448.705 35.2486 450.688 46 448C50.4397 446.89 57.6838 448.265 57 451C71.5129 449.286 80.6549 449.28 81 466L82 466C82 456.922 82.5199 446.069 78 438L74 440L70 438L70 440L59 437L58 437L57 437L46 439C35.671 436.217 18.3278 444.861 10 437z"/>
<path stroke="none" fill="#bba0ab" d="M161 437C165.725 454.138 178.462 461 195 461L195 460L187 460L188 456L178 456L178 452L177 452L175 454L183 446C175.534 447.707 169.905 449.038 166 441L172 447L175 446L169 438L168 438L164 440z"/>
<path stroke="none" fill="#c0bbb4" d="M188 438L183 446C186.838 444.62 189.453 442.233 188 438z"/>
<path stroke="none" fill="#b0d0f0" d="M4 451L3 451L0 449L0 466L81 466C80.8619 449.323 71.8648 448.281 57 451C56.4015 446.992 49.327 447.73 46 448.278C35.2318 450.052 24.8179 448.652 13.9954 449.741C10.3249 450.11 7.10433 448.776 4 451z"/>
<path stroke="none" fill="#b79c9d" d="M196 460L215 452C210.115 450.396 198.619 455.704 196 460z"/>
<path stroke="none" fill="#d4b5b7" d="M183 461L183 462L191 462z"/>
</svg>
